<svg xmlns="http://www.w3.org/2000/svg" fill="currentColor" viewBox="0 0 1024 1024"><path fill-rule="evenodd" d="M501.322 239.44c-5.853 1.83-28.816 14.232-65.822 35.549-5.5 3.168-21.925 12.387-36.5 20.486-74.322 41.299-110.585 62.248-115.503 66.722-5.853 5.326-10.716 13.707-12.966 22.345-2.267 8.703-2.316 246.023-.053 254.712 4.693 18.018 9.647 22.574 47.522 43.704 16.225 9.052 49.525 27.763 74 41.581 113.654 64.165 106.996 60.883 122.267 60.277 12.516-.497 6.63 2.487 107.733-54.624 30.752-17.371 58.05-32.734 77.5-43.617a91936 91936 0 0 0 24.427-13.675c18.256-10.225 25.685-18.634 29.542-33.442 2.312-8.875 2.312-246.041 0-254.916-4.294-16.484-10.689-22.859-38.571-38.446-11.219-6.272-39.298-22.066-62.398-35.097-85.69-48.341-114.132-64.272-120.556-67.527-9.214-4.669-22.844-6.464-30.622-4.032m-31.858 158.665c-22.53 12.708-48.614 27.389-57.964 32.625-9.35 5.235-17.788 10.413-18.75 11.505-2.714 3.08-2.703 136.812.012 139.527.968.968 11.656 7.346 23.75 14.173a82927 82927 0 0 1 76.935 43.474c9.321 5.275 17.612 9.591 18.425 9.591 1.458 0 12.212-5.917 64.128-35.285 14.575-8.245 32.125-18.15 39-22.012 20.318-11.413 18-1.149 18-79.699 0-52.556-.278-67.987-1.25-69.261-1.182-1.55-14.251-9.165-61.75-35.982C522.904 380.172 513.456 375 511.98 375c-.854 0-19.986 10.397-42.516 23.105"/></svg>