<svg xmlns="http://www.w3.org/2000/svg" fill="currentColor" viewBox="0 0 1024 1024"><path fill-rule="evenodd" d="M498.958 240.389c-6.15 2.556-17.725 8.845-50.458 27.412-12.1 6.863-25.825 14.611-30.5 17.217-80.565 44.908-122.85 68.796-128.964 72.855-9.967 6.616-16.578 17.163-19.103 30.48-1.644 8.671-1.171 241.861.507 249.778 1.905 8.987 5.749 16.193 11.911 22.329 4.913 4.891 7.893 6.703 48.649 29.578 4.675 2.624 29.2 16.445 54.5 30.713 123.083 69.413 113.55 64.668 128.735 64.066 9.36-.372 10.089-.572 18.97-5.207 9.238-4.821 79.281-44.044 119.795-67.084a6205 6205 0 0 1 44.5-25.002c35.615-19.783 40.95-23.092 45.421-28.172 5.008-5.689 9.751-15.122 10.986-21.852 1.678-9.135 1.348-243.404-.353-251.564-1.798-8.622-6.354-17.349-11.863-22.725-3.887-3.792-133.882-78.056-202.191-115.509-17.314-9.493-29.857-11.756-40.542-7.313m-48.325 168.067c-32.377 18.318-59.258 33.922-59.735 34.675-1.472 2.323-1.131 136.194.352 138.058.688.864 14.075 8.773 29.75 17.575 47.181 26.494 75.125 42.258 82.174 46.356 3.671 2.134 7.48 3.88 8.465 3.88 1.762 0 22.016-11.032 62.361-33.966a8234 8234 0 0 1 39-22.011c10.175-5.696 19.063-11.043 19.75-11.881.973-1.186 1.25-16.527 1.25-69.142 0-52.594-.278-67.965-1.25-69.181-1.098-1.373-21.507-13.058-99.018-56.691-10.873-6.12-20.773-11.094-22-11.052s-28.722 15.063-61.099 33.38"/></svg>