<?xml version="1.0" encoding="utf-8"?>
<!-- Generator: Adobe Illustrator 27.5.0, SVG Export Plug-In . SVG Version: 6.00 Build 0)  -->
<svg version="1.1" id="Capa_1" xmlns="http://www.w3.org/2000/svg" xmlns:xlink="http://www.w3.org/1999/xlink" x="0px" y="0px"
	 viewBox="0 0 2122 2122" style="enable-background:new 0 0 2122 2122;" xml:space="preserve">
<g>
	<path style="fill:#010202;" d="M376.967,1580.383c1.396-1.928,4.433-5.471,8.06-9.742c5.461-6.442,12.349-14.681,17.968-23.066
		c2.811-4.2,5.31-8.437,7.16-12.6c1.837-4.168,3.079-8.264,3.096-12.371c0.016-3.164-0.839-6.434-2.903-9.116
		c-2.053-2.692-5.105-4.597-8.804-5.752c-2.033-0.639-4.153-0.913-6.3-0.913c-6.738,0.033-13.819,2.556-21.158,6.227
		c-10.977,5.538-22.501,13.886-32.626,21.949c-10.105,8.055-18.799,15.85-23.75,20.139c-27.355,23.706-52.289,54.322-70.451,88.427
		c-18.152,34.103-29.547,71.723-29.553,109.411c-0.003,25.18,5.11,50.385,16.696,74.402l0,0c0.484,1.004,0.979,2.002,1.485,2.995
		c5.042,9.89,12.205,19.621,20.937,27.052c8.714,7.402,19.147,12.59,30.57,12.603c2.977,0,6.004-0.358,9.038-1.115
		c9.251-2.308,16.739-7.96,22.507-14.951c5.783-7.008,9.958-15.401,12.774-23.748c5.744-17.06,7.351-34.578,7.353-52.122
		c-0.01-23.779-2.933-47.678-2.923-70.888c0-3.237,0.056-6.46,0.185-9.667C337.979,1655.658,352.326,1614.298,376.967,1580.383z"/>
	<path style="fill:#010202;" d="M142.275,1565.018c6.955,3.789,14.54,5.358,22.077,5.353c13.004-0.021,25.951-4.529,37.021-10.599
		c22.734-12.514,40.438-30.744,56.814-50.047c16.371-19.32,31.47-39.769,48.735-57.12c33.477-33.673,77.15-57.186,123.707-66.596
		c3.09-0.633,9.649-1.368,17.383-2.355c11.667-1.507,26.229-3.623,38.316-7.544c6.053-1.984,11.521-4.381,15.853-7.742
		c2.159-1.688,4.048-3.649,5.436-6.007c1.388-2.345,2.216-5.117,2.206-8.005c0.001-3.384-1.074-6.789-3-10.124
		c-2.051-3.548-5.072-6.388-8.61-8.747c-6.211-4.115-14.133-6.914-22.91-9.058c-13.156-3.187-28.265-4.781-41.92-5.667
		c-13.638-0.881-25.837-1.035-32.843-1.239c-3.192-0.093-6.404-0.14-9.634-0.14c-53.708,0.012-112.116,12.832-161.579,39.618
		c-49.426,26.762-90.021,67.726-106.976,123.818l4.775,1.444l-4.777-1.44c-0.361,1.198-0.714,2.406-1.055,3.63
		c-2.459,8.814-3.904,18.42-3.906,27.964c0.005,10.06,1.601,20.073,5.507,28.97C126.784,1552.266,133.124,1560.052,142.275,1565.018
		z"/>
	<path style="fill:#10100F;" d="M2003.921,540.101c-0.017-4.842-1.142-9.875-3.676-14.522c-0.002-0.003-0.003-0.005-0.004-0.008
		c-2.554-4.704-6.379-8.748-11.116-11.986c-8.045-5.493-17.248-8.43-26.611-10.135c-9.404-1.694-19.15-2.152-28.699-2.158
		c-15.081,0.012-29.856,1.168-41.134,1.162h-0.108c-1.275,0-2.507-0.014-3.692-0.042c-33.884-0.861-67.26-1.679-98.986-7.327
		c-65.684-11.667-129.33-31.662-189.664-59.634c-105.984-49.102-207.594-110.839-316.37-158.393
		c-15.581-6.806-31.736-13.356-48.647-18.243c-16.907-4.884-34.604-8.106-53.124-8.106l-1.038,0.002h-0.03l-0.089,0.001
		l-0.099,0.002v0h-0.008v0.006c-23.718,0.202-48.154,6.958-70.322,20.085c-17.421,10.316-33.399,24.646-46.443,42.764
		c-13.26-17.149-29.151-30.646-46.315-40.325c-22.047-12.432-46.126-18.695-69.423-18.699c-1.129,0-2.256,0.015-3.378,0.043
		l0.005,0.392l-0.01-0.392c-18.717,0.493-36.485,4.27-53.382,9.726c-16.904,5.463-32.977,12.603-48.452,19.984
		C736.056,335.4,636.675,400.436,532.478,452.99c-59.318,29.935-122.22,52.008-187.451,65.824
		c-31.517,6.689-64.847,8.602-98.685,10.575c-3.665,0.214-7.876,0.286-12.425,0.286h-0.42c-5.974,0-12.533-0.115-19.34-0.115
		c-11.344,0.007-23.382,0.296-34.986,2.106c-5.809,0.913-11.53,2.212-17.026,4.142c-5.491,1.934-10.796,4.512-15.602,8.044
		c-4.44,3.261-8.015,7.237-10.409,11.798c-2.401,4.547-3.482,9.453-3.482,14.184l0.001,0.048l0,0c0,0.001,0,0.003,0,0.005
		l0.003,0.184l0.004,0c0.005,0.821,0.035,1.634,0.098,2.433v0.003c0.354,4.439,1.551,8.611,3.199,12.455l0.003,0.006
		c1.508,3.5,3.474,6.721,5.622,9.779c-1.003,5.164-1.461,10.441-1.463,15.751v0.009c0.038,18.192,4.836,37.107,10.653,54.256
		l0.001,0.004c5.843,17.135,12.841,32.511,17.723,42.862c50.554,107.194,119.64,205.736,197.097,294.468
		c67.978,77.87,146.29,147.476,233.824,203.146c-3.151,18.418-6.366,36.766-9.869,54.956
		c-12.706,66.04-29.082,130.058-58.525,188.944c-14.951,29.952-33.949,60.072-49.488,91.822
		c-7.764,15.886-14.659,32.212-19.639,49.214c-4.977,16.995-8.029,34.687-8.028,53.135c0,0.477,0,0.974,0.005,1.49
		c0.342,37.951,14.497,73.578,36.777,103.256c22.304,29.695,52.769,53.654,86.689,68.631
		c37.424,16.506,77.718,23.175,118.014,23.175c32.23-0.003,64.503-4.26,95.554-11.242
		c116.696-26.264,220.536-91.264,301.185-178.655c80.652-87.417,138.249-197.293,162.384-313.991
		c0.196-0.953,0.375-1.881,0.562-2.823c66.172-14.876,130.269-38.028,191.313-68.231c112.056-55.45,213.909-134.442,299.943-228.873
		c55.163-60.549,103.517-127.301,143.592-198.781c19.567-34.912,40.584-69.194,58.957-105.211
		c18.365-36.007,34.089-73.806,42.722-115.621c1.865-9.042,2.795-17.487,2.795-25.401l0-0.109c0-7.49-0.934-14.465-2.615-20.958
		c1.227-1.496,2.434-3.036,3.559-4.696l0.006-0.009c2.292-3.398,4.301-7.046,5.822-10.952c1.518-3.902,2.566-8.113,2.766-12.563
		l0.003-0.079l0.028-1.287l0.001-0.029v-0.078l-0.002-0.177L2003.921,540.101z"/>
	<path style="fill:#FFFFFC;" d="M1119.331,718.859c-17.768-64.782-55.561-111.155-101.039-159.381
		c-1.05,0.105-2.097,0.183-3.148,0.297c-40.503,4.389-80.255,15.678-119.483,28.719c-110.339,36.625-217.489,87.02-331.758,114.364
		c3.147,9.451,7.902,17.597,13.962,24.61c8.865,10.254,20.516,18.088,33.803,24.044c0.856,0.383,1.696,0.783,2.565,1.15
		c28.745,12.161,64.618,15.783,96.47,15.783c6.18,0,12.124-0.17,17.917-0.403c10.261-0.416,19.875-1.107,28.224-1.936
		c35.049-3.486,70.065-8.781,105.068-14.511c59.974-9.82,119.904-20.888,179.875-26.574c24.876-2.359,49.758-3.837,74.654-3.839
		c0.26,0,0.521,0.01,0.781,0.011c0.703,0.002,1.405,0,2.108,0.016c1.189,0.005,2.378,0.051,3.566,0.063
		c0.593,0.005,1.184,0.017,1.778,0.024c-1.569-0.02-3.139-0.079-4.708-0.087C1119.777,720.411,1119.565,719.634,1119.331,718.859z"
		/>
	<path style="fill:#E0D0DB;" d="M1575.918,695.628l-0.815,0.033l-0.799-0.153c-28.292-5.43-57.296-10.931-73.747-15.406
		c-33.201-9.049-73.075-20.533-105.676-32.315c-110.037-39.846-221.967-90.3-338.174-90.226c-12.746,0-25.55,0.634-38.414,1.918
		c45.478,48.226,83.271,94.599,101.039,159.381c0.234,0.775,0.446,1.552,0.635,2.351c1.569,0.008,3.139,0.067,4.708,0.087
		c3.921,0.049,7.842,0.093,11.764,0.219c1.867,0.059,3.734,0.177,5.601,0.254c14.921,0.616,29.845,1.753,44.78,3.628
		c84.521,10.587,165.676,42.743,250.926,50.624c10.114,0.916,20.348,1.506,30.558,1.506c22.887,0,45.705-2.87,67.089-10.987
		c30.933-11.715,58.551-35.827,68.075-67.725l0.212-0.728l-0.587-0.494c-1.313-1.124-2.666-2.176-4.026-3.215
		C1591.343,694.899,1583.625,695.316,1575.918,695.628z"/>
	<path style="fill:#AD1C50;" d="M1732.171,1023.185c54.2-59.491,101.703-125.069,141.055-195.259
		c19.812-35.332,40.692-69.417,58.601-104.546c17.92-35.13,32.87-71.274,41.031-110.806c1.644-7.961,2.399-15.123,2.399-21.537
		c-0.002-4.037-0.299-7.766-0.86-11.233c-11.006,8.283-22.809,14.19-33.367,20.275c-94.611,54.37-197.452,85.556-300.365,97.557
		c-46.874,94.102-120.716,173.832-209.244,230.48c-0.453,0.925-0.938,1.831-1.479,2.694c-2.709,4.351-6.378,7.937-10.538,11.084
		c-8.341,6.265-18.802,10.969-29.652,15.574c-7.225,3.052-14.621,6.017-21.588,9.145c-9.286,4.156-17.793,8.643-24.017,13.68
		c-12.282,9.871-21.028,24.404-28.466,39.815c-23.091,47.696-34.182,99.581-42.165,153.009
		c-6.953,46.445-11.547,94.007-19.895,140.823c63.622-14.543,125.335-36.984,184.258-66.139
		C1547.596,1193.516,1647.622,1115.991,1732.171,1023.185z"/>
	<path style="fill:#AD1C50;" d="M185.773,699.483c49.611,105.203,117.654,202.36,194.212,290.053
		c66.341,75.997,142.57,143.861,227.483,198.195c7.184-42.434,14.331-85.055,23.946-127.016
		c8.373-36.507,19.72-73.874,35.45-108.799c6.382-14.168,13.503-27.925,21.43-41.065c-77.607-48.88-144.541-116.034-190.726-194.816
		c-102.061-8.965-204.623-36.699-299.943-87.32c-11.218-5.978-23.786-11.686-35.481-20.148c-0.93-0.675-1.851-1.396-2.767-2.129
		c-0.073,1.34-0.153,2.672-0.153,4.064c-0.022,14.75,4.153,32.085,9.632,48.104C174.321,674.645,181.016,689.397,185.773,699.483z"
		/>
	<path style="fill:#D02C60;" d="M1971.335,553.71l0.006-0.009c2.48-3.034,4.415-6.278,5.408-8.867l0.006-0.016
		c0.674-1.717,0.965-3.201,1.006-4.201l0.006-0.339c-0.034-1.112-0.14-1.458-0.509-2.207c-0.402-0.7-1.036-1.588-2.932-2.911
		l-0.029-0.021c-3.719-2.575-9.41-4.697-16.433-5.942l-0.012-0.003c-7.019-1.278-15.333-1.745-23.97-1.741v0l-0.043,0h-0.116
		c-13.77-0.007-28.297,1.147-41.15,1.162c-1.227,0-2.435-0.018-3.638-0.042v0.008h-0.003l0,0l-0.114-0.003l-0.502-0.012h-0.008
		l-0.091-0.002c-33.833-0.885-68.504-1.626-102.9-7.722c-67.886-12.059-133.702-32.735-196.087-61.657
		c-107.737-49.976-209.196-111.593-315.843-158.157c-15.127-6.615-30.256-12.701-45.434-17.082
		c-15.188-4.387-30.394-7.077-45.863-7.077l-0.881,0.002h0.006c-18.919,0.116-39.043,5.569-57.377,16.442
		c-18.35,10.878-34.925,27.095-47.083,48.862l-11.841,21.208l-12.562-20.787c-12.611-20.854-29.251-36.284-47.461-46.567
		c-18.191-10.269-37.959-15.327-56.568-15.323c-0.914,0-1.812,0.009-2.679,0.034l-0.016,0.001
		c-15.624,0.412-30.866,3.571-46.031,8.467c-15.159,4.893-30.203,11.528-45.228,18.702
		C749.42,357.944,650.185,422.855,544.265,476.343c-61.34,30.958-126.395,53.785-193.821,68.066
		c-34.161,7.22-68.784,9.1-102.573,11.096c-4.55,0.266-9.298,0.331-14.186,0.331c-6.348,0-12.945-0.115-19.53-0.115
		c-8.134-0.001-16.264,0.18-23.731,0.894c-7.445,0.703-14.26,1.982-19.608,3.874c-3.574,1.254-6.512,2.77-8.761,4.431
		c-1.766,1.319-2.389,2.217-2.762,2.898c-0.355,0.741-0.442,1.066-0.475,2.04l0.025,0.626c0.077,0.993,0.415,2.456,1.15,4.155
		c0.733,1.713,1.878,3.706,3.33,5.698l-0.11-0.151l0.119,0.163c2.877,3.992,7.12,8.109,11.236,11.075l0.014,0.01
		c9.391,6.855,20.995,12.261,32.965,18.578l0.008,0.004c100.631,53.449,209.793,80.735,317.833,86.802l0.372-0.076l0.038-0.007
		C651.123,672.805,768.371,615.958,891.21,575.1c39.617-13.161,80.314-24.786,122.412-29.357
		c14.455-1.567,28.816-2.297,43.084-2.297c120.338,0.075,233.635,51.615,342.972,91.066c31.92,11.54,71.564,22.974,104.589,31.971
		c15.21,4.155,43.889,9.644,71.847,15c120.753-4.992,243.524-36.056,354.366-99.759l0.007-0.004
		c11.742-6.711,23.149-12.493,32.287-19.646l0.011-0.009C1965.793,559.733,1968.855,556.771,1971.335,553.71z"/>
	<path style="fill:#F18C86;" d="M646.126,534.094c75.556-55.194,168.463-79.995,254.289-114.088
		c17.985-7.145,36.446-15.174,49.225-29.71c12.777-14.536,18.119-37.433,7.233-53.43c-13.447-19.757-42.575-19.445-65.805-13.839
		c-60.787,14.665-114.231,49.968-166.134,84.837c-30.821,20.706-61.605,41.491-91.574,63.413
		c-18.806,13.759-87.961,62.835-70.441,93.428C582.64,599.134,631.643,544.674,646.126,534.094z"/>
	<path style="fill:#EB575B;" d="M620.233,1692.098c78.497,23.688,165.91,12.065,238.268-26.512
		c112.867-60.151,184.237-178.472,223.004-300.348c38.743-121.876,50.129-250.504,75.322-375.882
		c11.55-57.516,41.308-139.895,90.943-190.823c-37.215-11.128-76.146-16.938-114.984-16.938c-46.2,0-92.236,8.188-135.238,25.265
		c-5.997,2.377-12.302,5.035-18.96,7.176c-6.679,2.117-13.783,3.715-21.335,3.715h-0.565c-5.386-0.071-10.467-0.94-15.267-2.022
		c-4.821-1.106-9.386-2.424-13.737-3.53c-15.242-3.857-31.003-5.786-46.765-5.786c-29.593,0-59.233,6.75-85.674,19.878
		c-21.405,10.609-40.061,24.699-56.431,41.447c-16.351,16.726-30.395,36.11-42.439,57.208
		c-24.134,42.156-40.248,91.13-51.21,138.931c-15.006,65.396-24.017,133.167-36.86,199.926
		c-12.845,66.76-29.547,132.555-60.197,193.88c-11.669,23.338-25.24,46.061-37.591,68.855
		c-12.185,22.441-23.147,44.977-29.993,68.029C514.964,1640.626,564.952,1675.396,620.233,1692.098z"/>
	<path style="fill:#10100F;" d="M785.3,1379.428c-6.582,27.269-15.118,53.924-26.207,79.698
		c-11.127,25.864-26.26,48.76-40.584,72.826c-1.388,2.333,1.769,4.662,3.695,2.85c33.406-31.388,54.115-78.132,68.853-120.734
		c16.159-46.706,24.943-95.388,31.61-144.241c13.021-95.413,18.716-191.868,50.107-283.707
		c17.381-50.855,44.307-95.647,77.922-137.293c3.888-4.816-1.349-13.932-7.305-9.467c-75.654,56.763-104.037,158.253-118.37,247.288
		C809.348,1183.984,808.518,1283.258,785.3,1379.428z"/>
	<path style="fill:#D84650;" d="M1259.555,1171.026c8.068-53.964,19.359-107.337,43.423-157.067
		c7.81-16.066,17.361-32.555,32.3-44.645c9.033-7.269,20.207-12.609,31.474-17.503c11.267-4.87,22.699-9.221,32.015-13.925
		c6.212-3.106,11.457-6.353,15.054-9.693c2.071-1.881,3.576-3.764,4.612-5.623c1.152-2.139,1.717-4.209,1.717-6.75
		c0-2.424-0.565-5.34-2.117-8.916c-1.53-3.576-4.047-7.764-7.786-12.538c-14.231-18.278-34.628-34.601-56.999-48.482
		c-22.346-13.878-46.599-25.357-68.407-34.273c-12.114-4.965-24.512-9.315-37.072-13.079
		c-49.634,50.928-79.393,133.308-90.943,190.823c-25.194,125.378-36.58,254.006-75.322,375.882
		c-38.767,121.876-110.136,240.197-223.004,300.348c-72.358,38.577-159.771,50.2-238.268,26.512
		c-55.281-16.702-105.269-51.471-139.707-97.53l-0.304,0.989c-4.565,15.596-7.247,31.427-7.247,47.752v1.318
		c0.283,33.237,12.728,64.997,32.957,91.978c20.207,26.933,48.224,48.999,79.111,62.618c34.509,15.22,72.1,21.547,110.324,21.547
		c30.533,0,61.444-4.046,91.342-10.772c112.443-25.313,213.006-88.097,291.339-172.994
		c78.334-84.872,134.343-191.785,157.725-304.889C1246.617,1279.635,1251.487,1225.014,1259.555,1171.026z"/>
	<path style="fill:#D02C60;" d="M1681.284,993.645c8.684-14.66,16.76-30.752,15.949-47.773
		c-0.814-17.018-13.727-34.565-30.765-34.606c-9.413-0.022-18.049,5.067-25.591,10.699c-28.375,21.184-48.209,51.501-70.11,79.328
		c-47.11,59.844-106.126,110.28-172.582,147.488c-12.587,7.045-29.844,16.921-27.8,34.095c5.944,49.91,151.028-27.81,170.648-40.877
		C1597.917,1104.118,1646.463,1052.415,1681.284,993.645z"/>
	<path style="fill:#F18C86;" d="M485.488,562.649c-6.443,1.211-12.258,4.527-18.112,7.477c-24.933,12.558-52.86,19.12-80.777,18.984
		c-7.649-0.039-15.388-0.563-22.869,1.025c-31.893,6.765-19.277,40.292,3.659,49.644c20.867,8.507,55.734,0.653,76.168-5.162
		c23.116-6.58,45.181-19.814,57.839-40.246c4.999-8.07,8.161-19.223,2.107-26.536C499.322,562.786,491.933,561.442,485.488,562.649z
		"/>
	<path style="fill:#F18E97;" d="M770.678,1562.505c-16.317,4.47-33.123,8.27-47.686,16.882
		c-28.933,17.108-39.264,60.46-4.853,78.682c23.316,12.346,64.76-2.042,87.649-9.211c69.959-21.907,131.966-69.9,168.687-133.591
		c4.256-7.384,8.28-15.266,8.672-23.778c0.395-8.514-3.805-17.795-11.778-20.804c-9.871-3.727-20.292,3.077-28.831,9.277
		C890.839,1517.51,832.305,1545.623,770.678,1562.505z"/>
	<path style="fill:#F18E97;" d="M709.095,1151.984c16.838-6.134,14.638-40.36,17.24-54.285
		c9.73-52.034,36.534-99.727,69.998-140.192c11.391-13.776,23.968-27.591,28.463-44.892c4.495-17.301-2.634-39.215-19.803-44.185
		c-9.841-2.85-20.467,0.443-29.469,5.337c-23.825,12.958-40.114,36.346-52.909,60.26c-28.687,53.613-44.192,114.214-44.782,175.018
		C677.682,1124.491,684.623,1160.902,709.095,1151.984z"/>
	<path style="fill:#63C7F1;" d="M130.907,1489.13c-2.229,7.977-3.542,16.755-3.54,25.285c-0.005,8.998,1.465,17.701,4.663,24.953
		c3.215,7.267,8.016,13.062,15.015,16.886c5.293,2.878,11.123,4.135,17.307,4.14c10.631,0.021,22.229-3.857,32.212-9.364
		c21.032-11.559,37.926-28.776,54.012-47.756c16.091-18.964,31.317-39.635,49.271-57.704
		c34.903-35.092,80.278-59.521,128.808-69.341c2.65-0.531,6.258-0.99,10.658-1.541c4.385-0.547,9.504-1.166,14.9-1.941
		c10.778-1.539,22.708-3.744,31.661-7.034c5.978-2.148,10.501-4.9,12.426-7.381c1.121-1.431,1.524-2.556,1.546-3.976
		c-0.001-1.249-0.389-2.916-1.667-5.141c-1.04-1.814-2.855-3.669-5.496-5.425c-2.63-1.755-6.043-3.381-10.005-4.8
		c-7.925-2.851-17.999-4.869-28.428-6.234c-20.896-2.747-43.136-2.949-54-3.26c-3.095-0.09-6.21-0.136-9.344-0.136
		c-52.126-0.012-109.107,12.54-156.825,38.413c-47.754,25.897-86.132,64.878-102.178,117.931
		C131.559,1486.848,131.225,1487.987,130.907,1489.13z"/>
	<path style="fill:#63C7F1;" d="M242.338,1823.557c0.452,0.94,0.917,1.877,1.396,2.816c4.553,8.961,11.149,17.856,18.792,24.338
		c7.663,6.511,16.223,10.521,24.869,10.509c2.272-0.001,4.569-0.271,6.907-0.854c7.01-1.75,12.933-6.075,17.85-12.015
		c4.902-5.923,8.684-13.417,11.217-20.95c5.318-15.784,6.893-32.296,6.891-49.311c0.01-23.052-2.913-46.956-2.923-70.888
		c0-3.339,0.058-6.68,0.192-10.017c1.73-43.649,16.636-86.621,42.315-121.98c1.381-1.893,3.402-4.292,5.873-7.206
		c2.464-2.904,5.352-6.28,8.336-9.921c5.965-7.268,12.319-15.644,16.282-23.073c2.668-4.929,4.149-9.455,4.109-12.402
		c-0.016-1.735-0.388-2.828-1.094-3.77c-0.717-0.933-1.977-1.913-4.449-2.698c-1.044-0.329-2.258-0.508-3.657-0.508
		c-4.389-0.033-10.535,1.904-17.196,5.286c-6.675,3.36-13.899,8.063-20.88,13.156c-13.988,10.199-26.974,21.898-33.691,27.722
		c-26.527,22.977-50.836,52.826-68.445,85.91c-17.619,33.086-28.525,69.379-28.519,105.273c0.003,23.998,4.849,47.821,15.823,70.579
		l-3.966,1.913L242.338,1823.557z"/>
</g>
</svg>
